<svg width="42" height="42" viewBox="0 0 42 42" fill="none" xmlns="http://www.w3.org/2000/svg">
<foreignObject x="-10" y="-10" width="62" height="62"><div xmlns="http://www.w3.org/1999/xhtml" style="backdrop-filter:blur(5px);clip-path:url(#bgblur_0_3430_31516_clip_path);height:100%;width:100%"></div></foreignObject><rect data-figma-bg-blur-radius="10" x="0.5" y="0.5" width="41" height="41" rx="14.5" fill="#121212" fill-opacity="0.01" stroke="#121212"/>
<path d="M21 27.5C24.5899 27.5 27.5 24.5899 27.5 21C27.5 17.4101 24.5899 14.5 21 14.5C17.4101 14.5 14.5 17.4101 14.5 21C14.5 24.5899 17.4101 27.5 21 27.5Z" stroke="#121212" stroke-width="1.5" stroke-linecap="round" stroke-linejoin="round"/>
<path d="M28.14 28.14L28.01 28.01M28.01 13.99L28.14 13.86L28.01 13.99ZM13.86 28.14L13.99 28.01L13.86 28.14ZM21 11.08V11V11.08ZM21 31V30.92V31ZM11.08 21H11H11.08ZM31 21H30.92H31ZM13.99 13.99L13.86 13.86L13.99 13.99Z" stroke="#121212" stroke-width="1.5" stroke-linecap="round" stroke-linejoin="round"/>
<defs>
<clipPath id="bgblur_0_3430_31516_clip_path" transform="translate(10 10)"><rect x="0.5" y="0.5" width="41" height="41" rx="14.5"/>
</clipPath></defs>
</svg>
