<svg width="64" height="64" viewBox="0 0 64 64" fill="none" xmlns="http://www.w3.org/2000/svg">
<path d="M32.0006 6C35.7412 6 39.3314 6.63746 42.6678 7.80963C46.641 9.20597 50.2547 11.3588 53.3327 14.0978C54.2186 14.8824 55.0597 15.7183 55.8492 16.5986C58.6053 19.6575 60.774 23.2487 62.1791 27.1995C63.3586 30.5152 64 34.0831 64 37.8005V54.3295C64 56.909 61.8959 59 59.3003 59H47.3673C44.7717 59 42.6676 56.909 42.6676 54.3295V37.1212C42.6676 31.6414 38.1977 27.1993 32.6836 27.1993H26.0326C23.4369 27.1993 21.3329 29.2903 21.3329 31.8698V43.7309C21.3329 46.3104 19.2288 48.4014 16.6332 48.4014H4.6997C2.10408 48.4014 0 46.3104 0 43.7309V31.8719C0 29.2926 2.10385 27.2019 4.699 27.2014L16.6289 27.2C19.2236 27.1998 21.3272 25.1097 21.3279 22.5312L21.3317 10.6688C21.3326 8.09007 23.4365 6 26.0314 6L32.0006 6Z" fill="#E0E0E0"/>
</svg>
